<svg width="99" height="29" viewBox="0 0 99 29" fill="none" xmlns="http://www.w3.org/2000/svg">
<rect x="0.5" y="0.5" width="98" height="28" rx="3.5" stroke="#53545C"/>
<path d="M9.26074 19V11H12.0576C12.6149 11 13.0745 11.0964 13.4365 11.2891C13.7985 11.4792 14.068 11.7357 14.2451 12.0586C14.4222 12.3789 14.5107 12.7344 14.5107 13.125C14.5107 13.4687 14.4495 13.7526 14.3271 13.9766C14.2074 14.2005 14.0485 14.3776 13.8506 14.5078C13.6553 14.638 13.443 14.7344 13.2139 14.7969V14.875C13.4587 14.8906 13.7048 14.9766 13.9521 15.1328C14.1995 15.2891 14.4066 15.513 14.5732 15.8047C14.7399 16.0964 14.8232 16.4531 14.8232 16.875C14.8232 17.276 14.7321 17.6367 14.5498 17.957C14.3675 18.2773 14.0798 18.5312 13.6865 18.7187C13.2933 18.9062 12.7816 19 12.1514 19H9.26074ZM10.2295 18.1406H12.1514C12.7842 18.1406 13.2334 18.0182 13.499 17.7734C13.7673 17.526 13.9014 17.2266 13.9014 16.875C13.9014 16.6042 13.8324 16.3542 13.6943 16.125C13.5563 15.8932 13.3597 15.7083 13.1045 15.5703C12.8493 15.4297 12.5472 15.3594 12.1982 15.3594H10.2295V18.1406ZM10.2295 14.5156H12.0264C12.318 14.5156 12.5811 14.4583 12.8154 14.3437C13.0524 14.2292 13.2399 14.0677 13.3779 13.8594C13.5186 13.651 13.5889 13.4062 13.5889 13.125C13.5889 12.7734 13.4665 12.4753 13.2217 12.2305C12.9769 11.9831 12.5889 11.8594 12.0576 11.8594H10.2295V14.5156ZM20.0713 16.5469V13H20.9932V19H20.0713V17.9844H20.0088C19.8682 18.2891 19.6494 18.5482 19.3525 18.7617C19.0557 18.9727 18.6807 19.0781 18.2275 19.0781C17.8525 19.0781 17.5192 18.9961 17.2275 18.832C16.9359 18.6654 16.7067 18.4154 16.54 18.082C16.3734 17.7461 16.29 17.3229 16.29 16.8125V13H17.2119V16.75C17.2119 17.1875 17.3343 17.5365 17.5791 17.7969C17.8265 18.0573 18.1416 18.1875 18.5244 18.1875C18.7536 18.1875 18.9867 18.1289 19.2236 18.0117C19.4632 17.8945 19.6637 17.7148 19.8252 17.4727C19.9893 17.2305 20.0713 16.9219 20.0713 16.5469ZM23.6035 11V19H22.6816V11H23.6035ZM26.1514 16.8125L26.1357 15.6719H26.3232L28.9482 13H30.0889L27.292 15.8281H27.2139L26.1514 16.8125ZM25.292 19V11H26.2139V19H25.292ZM29.1045 19L26.7607 16.0312L27.417 15.3906L30.2764 19H29.1045ZM34.8223 19H33.8066L36.7441 11H37.7441L40.6816 19H39.666L37.2754 12.2656H37.2129L34.8223 19ZM35.1973 15.875H39.291V16.7344H35.1973V15.875ZM44.2402 19.125C43.6777 19.125 43.1934 18.9922 42.7871 18.7266C42.3809 18.4609 42.0684 18.0951 41.8496 17.6289C41.6309 17.1628 41.5215 16.6302 41.5215 16.0312C41.5215 15.4219 41.6335 14.8841 41.8574 14.418C42.084 13.9492 42.3991 13.5833 42.8027 13.3203C43.209 13.0547 43.6829 12.9219 44.2246 12.9219C44.6465 12.9219 45.0267 13 45.3652 13.1562C45.7038 13.3125 45.9811 13.5312 46.1973 13.8125C46.4134 14.0937 46.5475 14.4219 46.5996 14.7969H45.6777C45.6074 14.5234 45.4512 14.2812 45.209 14.0703C44.9694 13.8568 44.6465 13.75 44.2402 13.75C43.8809 13.75 43.5658 13.8437 43.2949 14.0312C43.0267 14.2161 42.8171 14.4779 42.666 14.8164C42.5176 15.1523 42.4434 15.5469 42.4434 16C42.4434 16.4635 42.5163 16.8672 42.6621 17.2109C42.8105 17.5547 43.0189 17.8216 43.2871 18.0117C43.5579 18.2018 43.8757 18.2969 44.2402 18.2969C44.4798 18.2969 44.6973 18.2552 44.8926 18.1719C45.0879 18.0885 45.2533 17.9688 45.3887 17.8125C45.5241 17.6562 45.6204 17.4687 45.6777 17.25H46.5996C46.5475 17.6042 46.4186 17.9232 46.2129 18.207C46.0098 18.4883 45.7402 18.7122 45.4043 18.8789C45.071 19.043 44.6829 19.125 44.2402 19.125ZM50.5566 13V13.7812H47.4473V13H50.5566ZM48.3535 11.5625H49.2754V17.2812C49.2754 17.5417 49.3132 17.737 49.3887 17.8672C49.4668 17.9948 49.5658 18.0807 49.6855 18.125C49.8079 18.1667 49.9368 18.1875 50.0723 18.1875C50.1738 18.1875 50.2572 18.1823 50.3223 18.1719C50.3874 18.1589 50.4395 18.1484 50.4785 18.1406L50.666 18.9687C50.6035 18.9922 50.5163 19.0156 50.4043 19.0391C50.2923 19.0651 50.1504 19.0781 49.9785 19.0781C49.7181 19.0781 49.4629 19.0221 49.2129 18.9102C48.9655 18.7982 48.7598 18.6276 48.5957 18.3984C48.4342 18.1693 48.3535 17.8802 48.3535 17.5312V11.5625ZM51.9434 19V13H52.8652V19H51.9434ZM52.4121 12C52.2324 12 52.0775 11.9388 51.9473 11.8164C51.8197 11.694 51.7559 11.5469 51.7559 11.375C51.7559 11.2031 51.8197 11.056 51.9473 10.9336C52.0775 10.8112 52.2324 10.75 52.4121 10.75C52.5918 10.75 52.7454 10.8112 52.873 10.9336C53.0033 11.056 53.0684 11.2031 53.0684 11.375C53.0684 11.5469 53.0033 11.694 52.873 11.8164C52.7454 11.9388 52.5918 12 52.4121 12ZM56.9912 19.125C56.4495 19.125 55.9743 18.9961 55.5654 18.7383C55.1592 18.4805 54.8415 18.1198 54.6123 17.6562C54.3857 17.1927 54.2725 16.651 54.2725 16.0312C54.2725 15.4062 54.3857 14.8607 54.6123 14.3945C54.8415 13.9284 55.1592 13.5664 55.5654 13.3086C55.9743 13.0508 56.4495 12.9219 56.9912 12.9219C57.5329 12.9219 58.0068 13.0508 58.4131 13.3086C58.8219 13.5664 59.1396 13.9284 59.3662 14.3945C59.5954 14.8607 59.71 15.4062 59.71 16.0312C59.71 16.651 59.5954 17.1927 59.3662 17.6562C59.1396 18.1198 58.8219 18.4805 58.4131 18.7383C58.0068 18.9961 57.5329 19.125 56.9912 19.125ZM56.9912 18.2969C57.4027 18.2969 57.7412 18.1914 58.0068 17.9805C58.2725 17.7695 58.4691 17.4922 58.5967 17.1484C58.7243 16.8047 58.7881 16.4323 58.7881 16.0312C58.7881 15.6302 58.7243 15.2565 58.5967 14.9102C58.4691 14.5638 58.2725 14.2839 58.0068 14.0703C57.7412 13.8568 57.4027 13.75 56.9912 13.75C56.5798 13.75 56.2412 13.8568 55.9756 14.0703C55.71 14.2839 55.5133 14.5638 55.3857 14.9102C55.2581 15.2565 55.1943 15.6302 55.1943 16.0312C55.1943 16.4323 55.2581 16.8047 55.3857 17.1484C55.5133 17.4922 55.71 17.7695 55.9756 17.9805C56.2412 18.1914 56.5798 18.2969 56.9912 18.2969ZM62.0391 15.3906V19H61.1172V13H62.0078V13.9375H62.0859C62.2266 13.6328 62.4401 13.388 62.7266 13.2031C63.013 13.0156 63.3828 12.9219 63.8359 12.9219C64.2422 12.9219 64.5977 13.0052 64.9023 13.1719C65.207 13.3359 65.444 13.5859 65.6133 13.9219C65.7826 14.2552 65.8672 14.6771 65.8672 15.1875V19H64.9453V15.25C64.9453 14.7786 64.8229 14.4115 64.5781 14.1484C64.3333 13.8828 63.9974 13.75 63.5703 13.75C63.276 13.75 63.013 13.8138 62.7813 13.9414C62.5521 14.069 62.3711 14.2552 62.2383 14.5C62.1055 14.7448 62.0391 15.0417 62.0391 15.3906Z" fill="#53545C"/>
<path d="M79 12.5L83 16.5L87 12.5" stroke="#53545C" stroke-width="2" stroke-linecap="round" stroke-linejoin="round"/>
</svg>
