<svg width="71" height="29" viewBox="0 0 71 29" fill="none" xmlns="http://www.w3.org/2000/svg">
<rect x="0.5" y="0.5" width="70" height="28" rx="3.5" stroke="#53545C"/>
<path d="M18.555 11.9498L14.7394 15.8061L10.3996 13.0918C9.77783 12.7028 9.90718 11.7583 10.6105 11.5526L20.9142 8.53518C21.5582 8.34642 22.155 8.94855 21.9637 9.59466L18.9154 19.8912C18.7066 20.5955 17.7675 20.7213 17.3821 20.0968L14.7373 15.8068" stroke="#53545C" stroke-width="1.5" stroke-linecap="round" stroke-linejoin="round"/>
<path d="M37.8315 13C37.7847 12.6042 37.5946 12.2969 37.2612 12.0781C36.9279 11.8594 36.519 11.75 36.0347 11.75C35.6805 11.75 35.3706 11.8073 35.105 11.9219C34.842 12.0365 34.6362 12.194 34.4878 12.3945C34.342 12.5951 34.269 12.8229 34.269 13.0781C34.269 13.2917 34.3198 13.4753 34.4214 13.6289C34.5256 13.7799 34.6584 13.9062 34.8198 14.0078C34.9813 14.1068 35.1506 14.1888 35.3276 14.2539C35.5047 14.3164 35.6675 14.3672 35.8159 14.4062L36.6284 14.625C36.8368 14.6797 37.0685 14.7552 37.3237 14.8516C37.5815 14.9479 37.8276 15.0794 38.062 15.2461C38.299 15.4102 38.4943 15.6211 38.6479 15.8789C38.8016 16.1367 38.8784 16.4531 38.8784 16.8281C38.8784 17.2604 38.7651 17.651 38.5386 18C38.3146 18.349 37.9865 18.6263 37.5542 18.832C37.1245 19.0378 36.6024 19.1406 35.9878 19.1406C35.4149 19.1406 34.9188 19.0482 34.4995 18.8633C34.0828 18.6784 33.7547 18.4206 33.5151 18.0898C33.2782 17.7591 33.144 17.375 33.1128 16.9375H34.1128C34.1388 17.2396 34.2404 17.4896 34.4175 17.6875C34.5972 17.8828 34.8237 18.0286 35.0972 18.125C35.3732 18.2187 35.6701 18.2656 35.9878 18.2656C36.3576 18.2656 36.6896 18.2057 36.9839 18.0859C37.2782 17.9635 37.5112 17.7943 37.6831 17.5781C37.855 17.3594 37.9409 17.1042 37.9409 16.8125C37.9409 16.5469 37.8667 16.3307 37.7183 16.1641C37.5698 15.9974 37.3745 15.862 37.1323 15.7578C36.8901 15.6536 36.6284 15.5625 36.3472 15.4844L35.3628 15.2031C34.7378 15.0234 34.243 14.7669 33.8784 14.4336C33.5138 14.1003 33.3315 13.6641 33.3315 13.125C33.3315 12.6771 33.4526 12.2865 33.6948 11.9531C33.9396 11.6172 34.2677 11.3568 34.6792 11.1719C35.0933 10.9844 35.5555 10.8906 36.0659 10.8906C36.5815 10.8906 37.0399 10.9831 37.4409 11.168C37.842 11.3503 38.1597 11.6003 38.394 11.918C38.631 12.2357 38.756 12.5964 38.769 13H37.8315ZM41.2681 15.3906V19H40.3462V11H41.2681V13.9375H41.3462C41.4868 13.6276 41.6978 13.3815 41.979 13.1992C42.2629 13.0143 42.6405 12.9219 43.1118 12.9219C43.5207 12.9219 43.8787 13.0039 44.186 13.168C44.4933 13.3294 44.7316 13.5781 44.9009 13.9141C45.0728 14.2474 45.1587 14.6719 45.1587 15.1875V19H44.2368V15.25C44.2368 14.7734 44.1131 14.4049 43.8657 14.1445C43.6209 13.8815 43.2811 13.75 42.8462 13.75C42.5441 13.75 42.2733 13.8138 42.0337 13.9414C41.7967 14.069 41.6092 14.2552 41.4712 14.5C41.3358 14.7448 41.2681 15.0417 41.2681 15.3906ZM48.6108 19.1406C48.2306 19.1406 47.8856 19.069 47.5757 18.9258C47.2658 18.7799 47.0197 18.5703 46.8374 18.2969C46.6551 18.0208 46.564 17.6875 46.564 17.2969C46.564 16.9531 46.6317 16.6745 46.7671 16.4609C46.9025 16.2448 47.0835 16.0755 47.3101 15.9531C47.5366 15.8307 47.7866 15.7396 48.0601 15.6797C48.3361 15.6172 48.6134 15.5677 48.8921 15.5313C49.2567 15.4844 49.5522 15.4492 49.7788 15.4258C50.008 15.3997 50.1746 15.3568 50.2788 15.2969C50.3856 15.237 50.439 15.1328 50.439 14.9844V14.9531C50.439 14.5677 50.3335 14.2682 50.1226 14.0547C49.9142 13.8411 49.5978 13.7344 49.1733 13.7344C48.7332 13.7344 48.3882 13.8307 48.1382 14.0234C47.8882 14.2161 47.7124 14.4219 47.6108 14.6406L46.7358 14.3281C46.8921 13.9635 47.1004 13.6797 47.3608 13.4766C47.6239 13.2708 47.9103 13.1276 48.2202 13.0469C48.5327 12.9635 48.84 12.9219 49.1421 12.9219C49.3348 12.9219 49.5562 12.9453 49.8062 12.9922C50.0588 13.0365 50.3022 13.1289 50.5366 13.2695C50.7736 13.4102 50.9702 13.6224 51.1265 13.9062C51.2827 14.1901 51.3608 14.5703 51.3608 15.0469V19H50.439V18.1875H50.3921C50.3296 18.3177 50.2254 18.457 50.0796 18.6055C49.9338 18.7539 49.7397 18.8802 49.4976 18.9844C49.2554 19.0885 48.9598 19.1406 48.6108 19.1406ZM48.7515 18.3125C49.116 18.3125 49.4233 18.2409 49.6733 18.0977C49.9259 17.9544 50.116 17.7695 50.2437 17.543C50.3739 17.3164 50.439 17.0781 50.439 16.8281V15.9844C50.3999 16.0312 50.314 16.0742 50.1812 16.1133C50.0509 16.1497 49.8999 16.1823 49.728 16.2109C49.5588 16.237 49.3934 16.2604 49.2319 16.2812C49.0731 16.2995 48.9442 16.3151 48.8452 16.3281C48.6056 16.3594 48.3817 16.4102 48.1733 16.4805C47.9676 16.5482 47.8009 16.651 47.6733 16.7891C47.5483 16.9245 47.4858 17.1094 47.4858 17.3437C47.4858 17.6641 47.6043 17.9062 47.8413 18.0703C48.0809 18.2318 48.3843 18.3125 48.7515 18.3125ZM53.0435 19V13H53.9341V13.9062H53.9966C54.106 13.6094 54.3039 13.3685 54.5903 13.1836C54.8768 12.9987 55.1997 12.9062 55.5591 12.9062C55.6268 12.9062 55.7114 12.9076 55.813 12.9102C55.9146 12.9128 55.9914 12.9167 56.0435 12.9219V13.8594C56.0122 13.8516 55.9406 13.8398 55.8286 13.8242C55.7192 13.806 55.6034 13.7969 55.481 13.7969C55.1893 13.7969 54.9289 13.8581 54.6997 13.9805C54.4731 14.1003 54.2935 14.2669 54.1606 14.4805C54.0304 14.6914 53.9653 14.9323 53.9653 15.2031V19H53.0435ZM59.4692 19.125C58.8911 19.125 58.3924 18.9974 57.9731 18.7422C57.5565 18.4844 57.2349 18.125 57.0083 17.6641C56.7843 17.2005 56.6724 16.6615 56.6724 16.0469C56.6724 15.4323 56.7843 14.8906 57.0083 14.4219C57.2349 13.9505 57.55 13.5833 57.9536 13.3203C58.3599 13.0547 58.8338 12.9219 59.3755 12.9219C59.688 12.9219 59.9966 12.974 60.3013 13.0781C60.606 13.1823 60.8833 13.3516 61.1333 13.5859C61.3833 13.8177 61.5825 14.125 61.731 14.5078C61.8794 14.8906 61.9536 15.362 61.9536 15.9219V16.3125H57.3286V15.5156H61.0161C61.0161 15.1771 60.9484 14.875 60.813 14.6094C60.6802 14.3437 60.4901 14.1341 60.2427 13.9805C59.9979 13.8268 59.7088 13.75 59.3755 13.75C59.0083 13.75 58.6906 13.8411 58.4224 14.0234C58.1567 14.2031 57.9523 14.4375 57.8091 14.7266C57.6659 15.0156 57.5942 15.3255 57.5942 15.6562V16.1875C57.5942 16.6406 57.6724 17.0247 57.8286 17.3398C57.9875 17.6523 58.2075 17.8906 58.4888 18.0547C58.77 18.2161 59.0968 18.2969 59.4692 18.2969C59.7114 18.2969 59.9302 18.263 60.1255 18.1953C60.3234 18.125 60.494 18.0208 60.6372 17.8828C60.7804 17.7422 60.8911 17.5677 60.9692 17.3594L61.8599 17.6094C61.7661 17.9115 61.6086 18.1771 61.3872 18.4062C61.1659 18.6328 60.8924 18.8099 60.5669 18.9375C60.2414 19.0625 59.8755 19.125 59.4692 19.125Z" fill="#53545C"/>
</svg>
