<svg width="67" height="29" viewBox="0 0 67 29" fill="none" xmlns="http://www.w3.org/2000/svg">
<rect x="0.5" y="0.5" width="66" height="28" rx="3.5" stroke="#53545C"/>
<path d="M10.0618 12.7695H21.9444" stroke="#53545C" stroke-width="1.5" stroke-linecap="round" stroke-linejoin="round"/>
<path d="M18.9614 15.3731H18.9675" stroke="#53545C" stroke-width="1.5" stroke-linecap="round" stroke-linejoin="round"/>
<path d="M16.0031 15.3731H16.0093" stroke="#53545C" stroke-width="1.5" stroke-linecap="round" stroke-linejoin="round"/>
<path d="M13.0386 15.3731H13.0448" stroke="#53545C" stroke-width="1.5" stroke-linecap="round" stroke-linejoin="round"/>
<path d="M18.9614 17.9641H18.9675" stroke="#53545C" stroke-width="1.5" stroke-linecap="round" stroke-linejoin="round"/>
<path d="M16.0031 17.9641H16.0093" stroke="#53545C" stroke-width="1.5" stroke-linecap="round" stroke-linejoin="round"/>
<path d="M13.0386 17.9641H13.0448" stroke="#53545C" stroke-width="1.5" stroke-linecap="round" stroke-linejoin="round"/>
<path d="M18.6958 7.83331V10.0272" stroke="#53545C" stroke-width="1.5" stroke-linecap="round" stroke-linejoin="round"/>
<path d="M13.3104 7.83331V10.0272" stroke="#53545C" stroke-width="1.5" stroke-linecap="round" stroke-linejoin="round"/>
<path fill-rule="evenodd" clip-rule="evenodd" d="M18.8255 8.88611H13.1806C11.2228 8.88611 10 9.97673 10 11.9815V18.0146C10 20.0508 11.2228 21.1666 13.1806 21.1666H18.8193C20.7833 21.1666 22 20.0697 22 18.065V11.9815C22.0062 9.97673 20.7895 8.88611 18.8255 8.88611Z" stroke="#53545C" stroke-width="1.5" stroke-linecap="round" stroke-linejoin="round"/>
<path d="M33.417 19V11H38.2139V11.8594H34.3857V14.5625H37.8545V15.4219H34.3857V19H33.417ZM39.748 19V13H40.6699V19H39.748ZM40.2168 12C40.0371 12 39.8822 11.9388 39.752 11.8164C39.6243 11.694 39.5605 11.5469 39.5605 11.375C39.5605 11.2031 39.6243 11.056 39.752 10.9336C39.8822 10.8112 40.0371 10.75 40.2168 10.75C40.3965 10.75 40.5501 10.8112 40.6777 10.9336C40.8079 11.056 40.873 11.2031 40.873 11.375C40.873 11.5469 40.8079 11.694 40.6777 11.8164C40.5501 11.9388 40.3965 12 40.2168 12ZM43.2803 11V19H42.3584V11H43.2803ZM47.5781 13V13.7812H44.4688V13H47.5781ZM45.375 11.5625H46.2969V17.2812C46.2969 17.5417 46.3346 17.737 46.4102 17.8672C46.4883 17.9948 46.5872 18.0807 46.707 18.125C46.8294 18.1667 46.9583 18.1875 47.0938 18.1875C47.1953 18.1875 47.2786 18.1823 47.3438 18.1719C47.4089 18.1589 47.4609 18.1484 47.5 18.1406L47.6875 18.9687C47.625 18.9922 47.5378 19.0156 47.4258 19.0391C47.3138 19.0651 47.1719 19.0781 47 19.0781C46.7396 19.0781 46.4844 19.0221 46.2344 18.9102C45.987 18.7982 45.7813 18.6276 45.6172 18.3984C45.4557 18.1693 45.375 17.8802 45.375 17.5312V11.5625ZM51.416 19.125C50.8379 19.125 50.3392 18.9974 49.9199 18.7422C49.5033 18.4844 49.1816 18.125 48.9551 17.6641C48.7311 17.2005 48.6191 16.6615 48.6191 16.0469C48.6191 15.4323 48.7311 14.8906 48.9551 14.4219C49.1816 13.9505 49.4967 13.5833 49.9004 13.3203C50.3066 13.0547 50.7806 12.9219 51.3223 12.9219C51.6348 12.9219 51.9434 12.974 52.248 13.0781C52.5527 13.1823 52.8301 13.3516 53.0801 13.5859C53.3301 13.8177 53.5293 14.125 53.6777 14.5078C53.8262 14.8906 53.9004 15.362 53.9004 15.9219V16.3125H49.2754V15.5156H52.9629C52.9629 15.1771 52.8952 14.875 52.7598 14.6094C52.627 14.3437 52.4368 14.1341 52.1895 13.9805C51.9447 13.8268 51.6556 13.75 51.3223 13.75C50.9551 13.75 50.6374 13.8411 50.3691 14.0234C50.1035 14.2031 49.8991 14.4375 49.7559 14.7266C49.6126 15.0156 49.541 15.3255 49.541 15.6562V16.1875C49.541 16.6406 49.6191 17.0247 49.7754 17.3398C49.9342 17.6523 50.1543 17.8906 50.4355 18.0547C50.7168 18.2161 51.0436 18.2969 51.416 18.2969C51.6582 18.2969 51.877 18.263 52.0723 18.1953C52.2702 18.125 52.4408 18.0208 52.584 17.8828C52.7272 17.7422 52.8379 17.5677 52.916 17.3594L53.8066 17.6094C53.7129 17.9115 53.5553 18.1771 53.334 18.4062C53.1126 18.6328 52.8392 18.8099 52.5137 18.9375C52.1882 19.0625 51.8223 19.125 51.416 19.125ZM55.3027 19V13H56.1934V13.9062H56.2559C56.3652 13.6094 56.5632 13.3685 56.8496 13.1836C57.1361 12.9987 57.459 12.9062 57.8184 12.9062C57.8861 12.9062 57.9707 12.9076 58.0723 12.9102C58.1738 12.9128 58.2507 12.9167 58.3027 12.9219V13.8594C58.2715 13.8516 58.1999 13.8398 58.0879 13.8242C57.9785 13.806 57.8626 13.7969 57.7402 13.7969C57.4486 13.7969 57.1882 13.8581 56.959 13.9805C56.7324 14.1003 56.5527 14.2669 56.4199 14.4805C56.2897 14.6914 56.2246 14.9323 56.2246 15.2031V19H55.3027Z" fill="#53545C"/>
</svg>
